<?xml version="1.0" encoding="utf-8"?>
<svg viewBox="-228.0111 -330.918 769.0302 1023.8619" width="769.0302" height="1023.8619" xmlns="http://www.w3.org/2000/svg">
  <path fill="#4C1B0D" opacity="1.000000" stroke="none" d="M 540.181 629.505 C 540.28 630.006 540.379 630.507 540.076 631.406 C 539.361 632.327 538.944 632.815 538.753 633.38 C 537.454 637.219 536.203 641.075 534.614 645.084 C 532.435 648.482 530.58 651.72 528.454 655.083 C 528.077 655.774 527.968 656.341 527.558 657.058 C 525.766 659.124 524.276 661.039 522.495 663.067 C 521.757 664.076 521.311 664.973 520.55 665.996 C 517.747 668.75 515.259 671.377 512.412 674.016 C 510.682 674.975 509.311 675.923 507.636 676.937 C 506.873 677.336 506.412 677.67 505.654 678.125 C 504.565 678.855 503.774 679.466 502.664 680.221 C 499.162 682.859 495.978 685.351 493.5 687.292 C 491.004 687.93 488.897 688.468 486.38 688.979 C 482.608 689.422 479.246 689.893 475.43 690.311 C 471.229 691.173 467.483 692.089 463.288 692.944 C 261.894 692.88 60.95 692.875 -139.994 692.878 C -143.656 692.878 -147.317 692.968 -151.278 692.78 C -152.868 692.033 -154.117 691.275 -155.457 691.05 C -162.506 689.865 -169.578 688.814 -176.664 687.726 C -176.686 687.736 -176.734 687.726 -176.894 687.519 C -177.468 687.521 -177.882 687.73 -178.519 687.813 C -179.38 687.92 -180.02 688.152 -179.534 687.976 C -181.833 686.007 -183.718 684.262 -185.745 682.703 C -187.081 681.676 -188.622 680.917 -190.35 679.989 C -191.005 679.933 -191.382 679.926 -191.816 679.576 C -192.593 678.898 -193.312 678.564 -194.317 678.042 C -195.348 677.13 -196.092 676.406 -196.86 675.343 C -197.916 674.359 -198.949 673.714 -200.125 672.749 C -204.777 667.617 -209.288 662.807 -213.93 657.679 C -215.303 655.554 -216.546 653.746 -217.806 651.578 C -219.144 648.817 -220.464 646.415 -221.818 643.64 C -223.168 640.179 -224.478 637.089 -225.805 634.007 C -226.301 632.853 -226.839 631.717 -227.358 630.573 C -227.451 630.305 -227.555 630.041 -227.443 629.503 C -227.416 628.44 -227.616 627.657 -227.816 626.873 C -227.881 620.715 -228.003 614.556 -228.004 608.398 C -228.013 322.316 -228.012 36.234 -228.009 -249.847 C -228.009 -256.838 -227.968 -263.829 -227.624 -271.38 C -227.337 -272.455 -227.373 -272.969 -227.408 -273.484 C -227.468 -273.935 -227.527 -274.386 -227.205 -275.243 C -223.277 -281.735 -219.73 -287.822 -215.998 -294.203 C -213.455 -297.584 -211.097 -300.669 -208.422 -303.835 C -205.403 -306.858 -202.701 -309.799 -199.641 -312.921 C -198.52 -314.544 -197.197 -315.948 -197.102 -317.431 C -196.814 -321.911 -195.237 -321.388 -195.237 -315.991 C -189.176 -320.787 -186.921 -324.616 -186.921 -321.647 C -182.707 -324.317 -175.754 -323.487 -178.007 -330.918 C 40.014 -330.918 258.035 -330.918 476.657 -330.579 C 482.048 -328.393 486.799 -326.437 491.651 -324.773 C 492.929 -324.335 494.516 -324.8 495.974 -324.536 C 496.325 -323.784 496.665 -323.346 497.213 -322.886 C 497.422 -322.863 497.84 -322.837 497.951 -322.6 C 498.354 -322.239 498.646 -322.114 499.157 -321.922 C 499.375 -321.856 499.808 -321.717 499.988 -321.447 C 500.796 -321.139 501.425 -321.101 502.34 -320.881 C 503.726 -319.699 504.824 -318.699 505.995 -317.372 C 507.03 -316.663 507.993 -316.281 509.033 -315.637 C 509.378 -315.138 509.644 -314.9 509.966 -314.325 C 511.329 -313.292 512.638 -312.598 514.096 -311.605 C 516.417 -309.135 518.589 -306.963 520.958 -304.512 C 524.745 -299.456 528.334 -294.679 531.926 -289.546 C 532.656 -287.784 533.383 -286.378 534.052 -284.602 C 535.676 -280.452 537.357 -276.671 539.039 -272.89 C 539.658 -270.147 540.671 -267.424 540.815 -264.655 C 541.118 -258.847 540.994 -253.014 540.994 -247.191 C 540.999 38.869 540.999 324.929 540.994 610.989 C 540.994 616.313 540.936 621.638 540.575 627.488 C 540.224 628.512 540.202 629.009 540.181 629.505 M 512.737 -282.06 C 516.097 -274.067 516.478 -265.692 516.408 -257.143 C 516.223 -234.508 516.518 -211.868 516.241 -189.235 C 516.163 -182.863 520.551 -180.458 524.393 -176.224 C 524.652 -177.774 524.797 -178.239 524.797 -178.703 C 524.779 -204.169 525.079 -229.641 524.556 -255.097 C 524.35 -265.1 521.144 -274.675 515.024 -283.731 C 508.733 -290.213 502.441 -296.695 495.815 -303.741 C 484.87 -311.535 472.46 -314.772 459.251 -314.776 C 259.261 -314.836 59.271 -314.826 -140.719 -314.775 C -146.355 -314.773 -152.091 -314.674 -157.6 -313.652 C -163.734 -312.514 -169.662 -310.266 -175.68 -308.502 C -175.533 -307.761 -175.387 -307.021 -175.24 -306.28 C -173.169 -306.28 -171.097 -306.28 -169.026 -306.28 C 41.63 -306.277 252.286 -306.247 462.942 -306.348 C 474.37 -306.353 485.538 -305.959 496.347 -300.098 C 501.741 -294.346 507.136 -288.594 512.737 -282.06 M -184.832 -260.044 C -194.985 -259.097 -202.882 -254.517 -207.412 -245.219 C -208.432 -243.127 -207.928 -240.294 -208.126 -237.802 C -207.638 -237.611 -207.15 -237.421 -206.662 -237.23 C -196.394 -243.87 -184.975 -243.915 -173.409 -243.911 C 37.135 -243.84 247.68 -243.844 458.224 -243.891 C 472.636 -243.894 487.143 -244.849 499.804 -234.871 C 498.546 -249.193 488.578 -258.94 474.089 -260.189 C 473.423 -260.206 472.757 -260.238 472.091 -260.238 C 254.878 -260.238 37.665 -260.237 -179.548 -260.221 C -181.033 -260.221 -182.518 -260.015 -184.832 -260.044 M -187.965 -226.301 C -190.777 -225.382 -193.59 -224.463 -196.402 -223.544 C -192.817 -219.914 -189.452 -217.451 -185.792 -215.561 C -172.831 -208.87 -158.794 -207.677 -144.498 -207.679 C 55.972 -207.711 256.442 -207.69 456.911 -207.728 C 468.539 -207.73 479.819 -206.103 490.64 -201.773 C 493.677 -200.557 496.616 -199.096 499.724 -197.691 C 500.998 -212.503 490.583 -224.973 475.433 -226.676 C 473.602 -226.723 471.771 -226.81 469.94 -226.81 C 252.867 -226.818 35.794 -226.822 -181.279 -226.797 C -183.24 -226.797 -185.201 -226.408 -187.965 -226.301 M -210.18 627.96 C -203.17 655.631 -178.142 676.055 -147.641 676.079 C 55.163 676.243 257.968 676.172 460.773 676.11 C 465.054 676.109 469.431 675.726 473.6 674.793 C 505.344 667.686 525.975 641.603 525.975 608.863 C 525.974 363.898 525.981 118.932 525.924 -126.034 C 525.923 -130.487 525.572 -135.022 524.694 -139.38 C 518.47 -170.273 491.685 -192.053 460.177 -192.053 C 255.705 -192.053 51.234 -192.043 -153.237 -192.115 C -158.002 -192.117 -162.8 -192.833 -167.524 -193.588 C -179.406 -195.488 -190.457 -199.708 -200.995 -206.687 C -204.517 -209.557 -208.039 -212.426 -211.56 -215.296 C -211.98 -214.952 -212.4 -214.609 -212.82 -214.265 C -212.82 -212.636 -212.82 -211.007 -212.82 -209.378 C -212.82 63.634 -212.835 336.645 -212.717 609.656 C -212.714 615.5 -211.184 621.344 -210.18 627.96 M 122.493 -277.162 C 238.12 -277.164 353.747 -277.129 469.374 -277.232 C 479.471 -277.241 488.898 -275.563 497.435 -269.961 C 497.746 -269.756 498.247 -269.841 499.022 -269.747 C 498.789 -270.821 498.709 -271.631 498.437 -272.371 C 494.313 -283.582 484.098 -290.044 470.455 -290.045 C 253.529 -290.05 36.603 -290.049 -180.323 -290.042 C -182.153 -290.042 -183.994 -290.041 -185.812 -289.86 C -197.665 -288.68 -207.343 -280.23 -209.294 -268.909 C -200.094 -275.301 -190.14 -277.265 -179.404 -277.251 C -79.105 -277.119 21.194 -277.167 122.493 -277.162 Z" transform="matrix(0.9999999999999999, 0, 0, 0.9999999999999999, 0, -1.1368683772161603e-13)"/>
  <path fill="#A68782" opacity="1.000000" stroke="none" d="M 500.032 -321.911 C 499.929 -325.403 502.015 -324.94 502.039 -321.507 C 501.425 -321.101 500.796 -321.139 500.032 -321.911 Z" transform="matrix(0.9999999999999999, 0, 0, 0.9999999999999999, 0, -1.1368683772161603e-13)"/>
  <path fill="#BFAAA8" opacity="1.000000" stroke="none" d="M -227.788 627.289 C -227.616 627.657 -227.416 628.44 -227.477 629.293 C -227.746 628.81 -227.753 628.258 -227.788 627.289 Z" transform="matrix(0.9999999999999999, 0, 0, 0.9999999999999999, 0, -1.1368683772161603e-13)"/>
  <path fill="#DEC8C3" opacity="1.000000" stroke="none" d="M -227.567 -273.057 C -227.373 -272.969 -227.337 -272.455 -227.592 -271.836 C -227.83 -272.031 -227.777 -272.33 -227.567 -273.057 Z" transform="matrix(0.9999999999999999, 0, 0, 0.9999999999999999, 0, -1.1368683772161603e-13)"/>
  <path fill="#C9B7B0" opacity="1.000000" stroke="none" d="M 540.372 629.109 C 540.202 629.009 540.224 628.512 540.53 627.943 C 540.731 628.151 540.647 628.432 540.372 629.109 Z" transform="matrix(0.9999999999999999, 0, 0, 0.9999999999999999, 0, -1.1368683772161603e-13)"/>
  <path fill="#A1CDB2" opacity="1.000000" stroke="none" d="M -200.669 -206.093 C -190.457 -199.708 -179.406 -195.488 -167.524 -193.588 C -162.8 -192.833 -158.002 -192.117 -153.237 -192.115 C 51.234 -192.043 255.705 -192.053 460.177 -192.053 C 491.685 -192.053 518.47 -170.273 524.694 -139.38 C 525.572 -135.022 525.923 -130.487 525.924 -126.034 C 525.981 118.932 525.974 363.898 525.975 608.863 C 525.975 641.603 505.344 667.686 473.6 674.793 C 469.431 675.726 465.054 676.109 460.773 676.11 C 257.968 676.172 55.163 676.243 -147.641 676.079 C -178.142 676.055 -203.17 655.631 -209.944 627.346 C -209.561 625.785 -209.218 624.821 -209.302 623.895 C -209.836 617.973 -210.986 612.059 -210.988 606.143 C -211.074 336.042 -211.063 65.941 -211.063 -204.16 C -211.063 -205.66 -211.151 -207.167 -211.03 -208.656 C -210.947 -209.669 -210.571 -210.658 -210.374 -211.463 C -206.888 -209.534 -203.779 -207.814 -200.669 -206.093 M 19.364 534.657 C 6.368 535.766 -6.64 536.763 -19.622 538.018 C -31.935 539.209 -44.238 540.55 -56.502 542.156 C -58.126 542.369 -59.494 544.532 -60.981 545.792 C -59.711 546.831 -58.561 548.547 -57.151 548.796 C -49.53 550.145 -41.872 551.404 -34.176 552.189 C -13.444 554.302 7.301 556.321 28.068 558.047 C 37.479 558.829 46.963 558.685 56.399 559.221 C 71.066 560.055 85.733 562.087 100.377 561.888 C 142.594 561.313 184.857 564.269 227.038 560.219 C 236.772 559.284 246.621 559.626 256.402 559.096 C 279.212 557.858 302.039 556.774 324.809 554.983 C 338.27 553.925 351.66 551.807 365.027 549.797 C 368.846 549.223 372.472 547.363 376.186 546.092 C 376.118 545.47 376.049 544.848 375.981 544.226 C 374.402 543.554 372.873 542.486 371.234 542.273 C 359.458 540.747 347.671 539.29 335.864 538.033 C 330.352 537.445 324.79 537.281 319.246 537.052 C 314 536.836 308.736 536.953 303.5 536.616 C 298.308 536.282 293.14 535.565 288.51 534.536 C 319.485 524.266 346.718 507.668 370.322 485.269 C 408.448 449.09 435.453 405.915 451.736 355.844 C 463.118 320.842 469.69 285.026 471.7 248.394 C 472.341 236.702 471.224 224.876 470.362 213.151 C 469.609 202.908 468.721 192.599 466.778 182.534 C 461.338 154.357 451.871 127.591 437.423 102.651 C 417.21 67.763 390.33 39.536 354.46 20.713 C 327.182 6.399 298.062 -0.445 266.972 1.227 C 241.921 2.573 218.627 9.377 196.643 21.138 C 190.743 24.295 184.948 27.647 178.066 31.489 C 179.075 26.327 179.754 22.268 180.668 18.263 C 188.333 -15.317 206.144 -42.386 233.44 -63.216 C 240.617 -68.692 242.622 -75.019 237.112 -82.386 C 232.098 -89.09 225.916 -94.981 219.855 -100.822 C 213.862 -106.598 205.116 -106.797 198.287 -99.482 C 182.806 -82.899 170.246 -64.515 161.994 -43.307 C 159.828 -37.742 157.719 -32.155 155.583 -26.578 C 151.836 -40.469 147.579 -53.582 140.686 -65.785 C 132.117 -80.953 122.16 -95.084 109.151 -106.732 C 81.682 -131.327 49.049 -145.53 13.231 -152.593 C 2.055 -154.796 -2.676 -154.784 -3.835 -141.749 C -5.46 -123.452 -5.118 -105.227 -1.922 -87.087 C 2.902 -59.716 12.432 -34.314 29.255 -11.933 C 32.176 -8.046 35.164 -4.208 38.653 0.347 C 36.095 0.347 34.61 0.344 33.125 0.348 C 0.232 0.427 -29.756 10.57 -57.202 27.941 C -90.155 48.797 -114.43 77.892 -132.643 112.068 C -150.17 144.956 -158.111 180.638 -160.601 217.47 C -161.637 232.809 -160.27 248.335 -159.61 263.76 C -158.504 289.578 -153.134 314.652 -146.176 339.476 C -132.405 388.612 -109.178 432.582 -74.68 470.28 C -48.323 499.082 -16.963 520.759 19.364 534.657 Z" transform="matrix(0.9999999999999999, 0, 0, 0.9999999999999999, 0, -1.1368683772161603e-13)"/>
  <path fill="#FBDA93" opacity="1.000000" stroke="none" d="M 476.209 -226.336 C 490.583 -224.973 500.998 -212.503 499.724 -197.691 C 496.616 -199.096 493.677 -200.557 490.64 -201.773 C 479.819 -206.103 468.539 -207.73 456.911 -207.728 C 256.442 -207.69 55.972 -207.711 -144.498 -207.679 C -158.794 -207.677 -172.831 -208.87 -185.792 -215.561 C -189.452 -217.451 -192.817 -219.914 -196.402 -223.544 C -193.59 -224.463 -190.777 -225.382 -187.289 -225.908 C -184.655 -225.315 -182.697 -224.942 -180.738 -224.942 C -109.575 -224.912 -38.411 -224.917 32.753 -224.917 C 178.414 -224.917 324.075 -224.911 469.736 -224.976 C 471.894 -224.977 474.051 -225.863 476.209 -226.336 Z" transform="matrix(0.9999999999999999, 0, 0, 0.9999999999999999, 0, -1.1368683772161603e-13)"/>
  <path fill="#FDDD94" opacity="1.000000" stroke="none" d="M 474.996 -259.929 C 488.578 -258.94 498.546 -249.193 499.804 -234.871 C 487.143 -244.849 472.636 -243.894 458.224 -243.891 C 247.68 -243.844 37.135 -243.84 -173.409 -243.911 C -184.975 -243.915 -196.394 -243.87 -206.662 -237.23 C -207.15 -237.421 -207.638 -237.611 -208.126 -237.802 C -207.928 -240.294 -208.432 -243.127 -207.412 -245.219 C -202.882 -254.517 -194.985 -259.097 -184.122 -259.68 C -181.934 -259.183 -180.456 -258.935 -178.978 -258.935 C 37.288 -258.918 253.554 -258.916 469.82 -258.96 C 471.545 -258.961 473.271 -259.592 474.996 -259.929 Z" transform="matrix(0.9999999999999999, 0, 0, 0.9999999999999999, 0, -1.1368683772161603e-13)"/>
  <path fill="#F8D891" opacity="1.000000" stroke="none" d="M 121.993 -277.162 C 21.194 -277.167 -79.105 -277.119 -179.404 -277.251 C -190.14 -277.265 -200.094 -275.301 -209.294 -268.909 C -207.343 -280.23 -197.665 -288.68 -185.812 -289.86 C -183.994 -290.041 -182.153 -290.042 -180.323 -290.042 C 36.603 -290.049 253.529 -290.05 470.455 -290.045 C 484.098 -290.044 494.313 -283.582 498.437 -272.371 C 498.709 -271.631 498.789 -270.821 499.022 -269.747 C 498.247 -269.841 497.746 -269.756 497.435 -269.961 C 488.898 -275.563 479.471 -277.241 469.374 -277.232 C 353.747 -277.129 238.12 -277.164 121.993 -277.162 Z" transform="matrix(0.9999999999999999, 0, 0, 0.9999999999999999, 0, -1.1368683772161603e-13)"/>
  <path fill="#9BC0A6" opacity="1.000000" stroke="none" d="M 495.938 -300.587 C 485.538 -305.959 474.37 -306.353 462.942 -306.348 C 252.286 -306.247 41.63 -306.277 -169.026 -306.28 C -171.097 -306.28 -173.169 -306.28 -175.24 -306.28 C -175.387 -307.021 -175.533 -307.761 -175.68 -308.502 C -169.662 -310.266 -163.734 -312.514 -157.6 -313.652 C -152.091 -314.674 -146.355 -314.773 -140.719 -314.775 C 59.271 -314.826 259.261 -314.836 459.251 -314.776 C 472.46 -314.772 484.87 -311.535 495.965 -303.026 C 496.056 -301.736 495.997 -301.162 495.938 -300.587 Z" transform="matrix(0.9999999999999999, 0, 0, 0.9999999999999999, 0, -1.1368683772161603e-13)"/>
  <path fill="#96B39A" opacity="1.000000" stroke="none" d="M -200.832 -206.39 C -203.779 -207.814 -206.888 -209.534 -210.374 -211.463 C -210.571 -210.658 -210.947 -209.669 -211.03 -208.656 C -211.151 -207.167 -211.063 -205.66 -211.063 -204.16 C -211.063 65.941 -211.074 336.042 -210.988 606.143 C -210.986 612.059 -209.836 617.973 -209.302 623.895 C -209.218 624.821 -209.561 625.785 -210.037 626.959 C -211.184 621.344 -212.714 615.5 -212.717 609.656 C -212.835 336.645 -212.82 63.634 -212.82 -209.378 C -212.82 -211.007 -212.82 -212.636 -212.82 -214.265 C -212.4 -214.609 -211.98 -214.952 -211.56 -215.296 C -208.039 -212.426 -204.517 -209.557 -200.832 -206.39 Z" transform="matrix(0.9999999999999999, 0, 0, 0.9999999999999999, 0, -1.1368683772161603e-13)"/>
  <path fill="#FFEC9E" opacity="1.000000" stroke="none" d="M 475.821 -226.506 C 474.051 -225.863 471.894 -224.977 469.736 -224.976 C 324.075 -224.911 178.414 -224.917 32.753 -224.917 C -38.411 -224.917 -109.575 -224.912 -180.738 -224.942 C -182.697 -224.942 -184.655 -225.315 -186.887 -225.858 C -185.201 -226.408 -183.24 -226.797 -181.279 -226.797 C 35.794 -226.822 252.867 -226.818 469.94 -226.81 C 471.771 -226.81 473.602 -226.723 475.821 -226.506 Z" transform="matrix(0.9999999999999999, 0, 0, 0.9999999999999999, 0, -1.1368683772161603e-13)"/>
  <path fill="#9ABDA4" opacity="1.000000" stroke="none" d="M 515.251 -283.072 C 521.144 -274.675 524.35 -265.1 524.556 -255.097 C 525.079 -229.641 524.779 -204.169 524.797 -178.703 C 524.797 -178.239 524.652 -177.774 524.393 -176.224 C 520.551 -180.458 516.163 -182.863 516.241 -189.235 C 516.518 -211.868 516.223 -234.508 516.408 -257.143 C 516.478 -265.692 516.097 -274.067 513.085 -282.515 C 514.039 -283.004 514.645 -283.038 515.251 -283.072 Z" transform="matrix(0.9999999999999999, 0, 0, 0.9999999999999999, 0, -1.1368683772161603e-13)"/>
  <path fill="#FFEBA0" opacity="1.000000" stroke="none" d="M 474.542 -260.059 C 473.271 -259.592 471.545 -258.961 469.82 -258.96 C 253.554 -258.916 37.288 -258.918 -178.978 -258.935 C -180.456 -258.935 -181.934 -259.183 -183.707 -259.61 C -182.518 -260.015 -181.033 -260.221 -179.548 -260.221 C 37.665 -260.237 254.878 -260.238 472.091 -260.238 C 472.757 -260.238 473.423 -260.206 474.542 -260.059 Z" transform="matrix(0.9999999999999999, 0, 0, 0.9999999999999999, 0, -1.1368683772161603e-13)"/>
  <path fill="#968E8A" opacity="1.000000" stroke="none" d="M 515.138 -283.402 C 514.645 -283.038 514.039 -283.004 512.982 -282.907 C 507.136 -288.594 501.741 -294.346 496.143 -300.342 C 495.997 -301.162 496.056 -301.736 496.133 -302.744 C 502.441 -296.695 508.733 -290.213 515.138 -283.402 Z" transform="matrix(0.9999999999999999, 0, 0, 0.9999999999999999, 0, -1.1368683772161603e-13)"/>
  <path fill="#BFAAA8" opacity="1.000000" stroke="none" d="M -176.894 687.519 C -176.99 687.793 -177.246 687.86 -177.9 687.933 C -177.882 687.73 -177.468 687.521 -176.894 687.519 Z" transform="matrix(0.9999999999999999, 0, 0, 0.9999999999999999, 0, -1.1368683772161603e-13)"/>
  <path fill="#4C1B0D" opacity="1.000000" stroke="none" d="M 484.258 -328.498 C 484.273 -328.883 484.494 -329.107 484.716 -329.33 C 484.633 -328.999 484.549 -328.667 484.258 -328.498 Z" transform="matrix(0.9999999999999999, 0, 0, 0.9999999999999999, 0, -1.1368683772161603e-13)"/>
  <path fill="#4B190C" opacity="1.000000" stroke="none" d="M 19.926 534.092 C -16.963 520.759 -48.323 499.082 -74.68 470.28 C -109.178 432.582 -132.405 388.612 -146.176 339.476 C -153.134 314.652 -158.504 289.578 -159.61 263.76 C -160.27 248.335 -161.637 232.809 -160.601 217.47 C -158.111 180.638 -150.17 144.956 -132.643 112.068 C -114.43 77.892 -90.155 48.797 -57.202 27.941 C -29.756 10.57 0.232 0.427 33.125 0.348 C 34.61 0.344 36.095 0.347 38.653 0.347 C 35.164 -4.208 32.176 -8.046 29.255 -11.933 C 12.432 -34.314 2.902 -59.716 -1.922 -87.087 C -5.118 -105.227 -5.46 -123.452 -3.835 -141.749 C -2.676 -154.784 2.055 -154.796 13.231 -152.593 C 49.049 -145.53 81.682 -131.327 109.151 -106.732 C 122.16 -95.084 132.117 -80.953 140.686 -65.785 C 147.579 -53.582 151.836 -40.469 155.583 -26.578 C 157.719 -32.155 159.828 -37.742 161.994 -43.307 C 170.246 -64.515 182.806 -82.899 198.287 -99.482 C 205.116 -106.797 213.862 -106.598 219.855 -100.822 C 225.916 -94.981 232.098 -89.09 237.112 -82.386 C 242.622 -75.019 240.617 -68.692 233.44 -63.216 C 206.144 -42.386 188.333 -15.317 180.668 18.263 C 179.754 22.268 179.075 26.327 178.066 31.489 C 184.948 27.647 190.743 24.295 196.643 21.138 C 218.627 9.377 241.921 2.573 266.972 1.227 C 298.062 -0.445 327.182 6.399 354.46 20.713 C 390.33 39.536 417.21 67.763 437.423 102.651 C 451.871 127.591 461.338 154.357 466.778 182.534 C 468.721 192.599 469.609 202.908 470.362 213.151 C 471.224 224.876 472.341 236.702 471.7 248.394 C 469.69 285.026 463.118 320.842 451.736 355.844 C 435.453 405.915 408.448 449.09 370.322 485.269 C 346.718 507.668 319.485 524.266 287.844 534.763 C 274.275 537.746 261.478 541.291 248.441 543.076 C 228.087 545.861 207.746 544.708 187.891 538.897 C 181.115 536.914 174.508 534.352 167.567 531.86 C 166.445 531.191 165.478 530.842 164.732 530.224 C 158.815 525.322 152.868 525.326 146.485 530.02 C 145.447 530.51 144.802 531.045 144.073 531.409 C 115.867 545.494 85.919 546.741 55.532 542.488 C 43.507 540.805 31.786 536.955 19.926 534.092 M 92.069 -58.229 C 93.057 -57.737 94.046 -57.246 95.347 -56.536 C 95.539 -56.364 95.693 -56.163 95.826 -55.201 C 105.767 -41.48 115.707 -27.758 125.648 -14.037 C 126.086 -14.29 126.525 -14.543 126.964 -14.797 C 124.803 -23.861 122.086 -32.732 117.276 -41.648 C 110.406 -59.535 98.176 -73.481 84.01 -85.774 C 70.906 -97.144 56.452 -106.551 40.024 -112.599 C 36.891 -113.752 33.947 -114.062 31.228 -111.507 C 27.734 -108.224 27.96 -104.343 32.003 -98.314 C 33.08 -81.512 38.415 -65.894 45.555 -50.852 C 55.348 -30.222 70.377 -13.95 89.305 -1.576 C 96.079 2.852 104.398 4.914 112.106 8.386 C 112.212 8.434 112.317 8.482 112.423 8.531 C 112.27 8.389 112.118 8.247 111.962 7.402 C 101.133 -8.338 90.396 -24.143 79.411 -39.774 C 76.541 -43.858 75.697 -48.133 76.346 -53.497 C 79.993 -59.854 86.019 -59.341 91.998 -58.925 C 91.998 -58.925 91.983 -58.925 92.069 -58.229 M 169.93 492.842 C 178.192 496.635 186.157 501.396 194.77 504.048 C 226.568 513.839 257.614 509.722 287.806 497.062 C 324.023 481.876 351.943 456.307 375.319 425.483 C 398.783 394.544 413.768 359.555 423.121 321.997 C 427.708 303.579 432.085 285.151 433.534 265.438 C 436.153 236.226 435.264 207.226 429.264 178.396 C 421.649 141.804 404.884 110.111 379.283 83.038 C 367.717 70.807 354.465 60.579 339.653 52.637 C 333.202 49.178 325.96 47.194 318.435 44.115 C 296.297 34.94 273.326 32.678 250.154 38.202 C 236.684 41.412 223.373 46.128 210.733 51.815 C 181.595 64.924 151.713 67.947 121.045 59.764 C 108.781 56.492 97.118 50.89 85.285 46.094 C 55.622 34.071 25.551 31.542 -5.157 41.743 C -34.806 51.593 -58.403 69.983 -78.104 93.743 C -106.921 128.497 -120.807 169.184 -123.438 213.64 C -124.841 237.334 -124.633 261.175 -120.48 284.832 C -116.755 306.046 -112.215 326.982 -105.323 347.409 C -93.633 382.055 -76.223 413.6 -52.234 441.072 C -41.157 453.757 -28.556 465.549 -15.03 475.562 C 9.065 493.397 36.065 505.405 66.375 508.517 C 86.327 510.565 106.053 509.606 124.771 501.811 C 131.961 498.817 138.426 494.082 145.916 490.077 C 149.358 488.229 152.799 486.381 155.677 484.836 C 160.523 487.421 165.038 489.829 169.93 492.842 Z" transform="matrix(0.9999999999999999, 0, 0, 0.9999999999999999, 0, -1.1368683772161603e-13)"/>
  <path fill="#BB746F" opacity="1.000000" stroke="none" d="M 19.645 534.374 C 31.786 536.955 43.507 540.805 55.532 542.488 C 85.919 546.741 115.867 545.494 144.073 531.409 C 144.802 531.045 145.447 530.51 146.513 530.434 C 149.393 531.758 151.846 533.324 154.4 533.511 C 158.886 533.839 163.736 535.872 167.824 532.055 C 174.508 534.352 181.115 536.914 187.891 538.897 C 207.746 544.708 228.087 545.861 248.441 543.076 C 261.478 541.291 274.275 537.746 287.571 535.003 C 293.14 535.565 298.308 536.282 303.5 536.616 C 308.736 536.953 314 536.836 319.246 537.052 C 324.79 537.281 330.352 537.445 335.864 538.033 C 347.671 539.29 359.458 540.747 371.234 542.273 C 372.873 542.486 374.402 543.554 375.981 544.226 C 376.049 544.848 376.118 545.47 376.186 546.092 C 372.472 547.363 368.846 549.223 365.027 549.797 C 351.66 551.807 338.27 553.925 324.809 554.983 C 302.039 556.774 279.212 557.858 256.402 559.096 C 246.621 559.626 236.772 559.284 227.038 560.219 C 184.857 564.269 142.594 561.313 100.377 561.888 C 85.733 562.087 71.066 560.055 56.399 559.221 C 46.963 558.685 37.479 558.829 28.068 558.047 C 7.301 556.321 -13.444 554.302 -34.176 552.189 C -41.872 551.404 -49.53 550.145 -57.151 548.796 C -58.561 548.547 -59.711 546.831 -60.981 545.792 C -59.494 544.532 -58.126 542.369 -56.502 542.156 C -44.238 540.55 -31.935 539.209 -19.622 538.018 C -6.64 536.763 6.368 535.766 19.645 534.374 Z" transform="matrix(0.9999999999999999, 0, 0, 0.9999999999999999, 0, -1.1368683772161603e-13)"/>
  <path fill="#FE4761" opacity="1.000000" stroke="none" d="M 145.221 490.141 C 138.426 494.082 131.961 498.817 124.771 501.811 C 106.053 509.606 86.327 510.565 66.375 508.517 C 36.065 505.405 9.065 493.397 -15.03 475.562 C -28.556 465.549 -41.157 453.757 -52.234 441.072 C -76.223 413.6 -93.633 382.055 -105.323 347.409 C -112.215 326.982 -116.755 306.046 -120.48 284.832 C -124.633 261.175 -124.841 237.334 -123.438 213.64 C -120.807 169.184 -106.921 128.497 -78.104 93.743 C -58.403 69.983 -34.806 51.593 -5.157 41.743 C 25.551 31.542 55.622 34.071 85.285 46.094 C 97.118 50.89 108.781 56.492 121.045 59.764 C 151.713 67.947 181.595 64.924 210.733 51.815 C 223.373 46.128 236.684 41.412 250.154 38.202 C 273.326 32.678 296.297 34.94 318.72 44.646 C 320.078 46.356 320.989 47.757 322.25 48.68 C 335.975 58.723 346.216 71.882 355.818 85.677 C 372.837 110.127 382.239 137.508 387.091 166.613 C 388.747 176.542 390.055 186.552 390.964 196.576 C 391.607 203.663 391.798 210.869 391.309 217.962 C 390.742 226.174 389.031 234.3 388.126 242.497 C 385.249 268.575 375.867 292.588 364.52 315.878 C 355.392 334.612 342.737 351.052 329.589 367.151 C 317.453 382.011 304.07 395.624 288.685 406.953 C 276.199 416.147 262.89 424.287 249.581 432.286 C 218.914 450.717 185.266 460.498 149.842 462.757 C 126.739 464.231 103.424 464.067 80.43 459.131 C 52.807 453.202 26.571 443.97 2.811 428.466 C -16.895 415.606 -34.219 400.135 -49.031 381.709 C -67.812 358.345 -82.077 332.635 -91.934 304.367 C -92.824 301.815 -94.954 299.012 -97.268 297.885 C -98.748 297.164 -103.134 298.841 -103.577 300.264 C -104.654 303.725 -105.085 307.901 -104.172 311.366 C -101.858 320.147 -99.254 328.947 -95.694 337.282 C -88.963 353.039 -82.063 368.782 -74.105 383.938 C -68.745 394.147 -61.666 403.493 -54.953 412.938 C -49.158 421.089 -44.264 430.023 -36.147 436.331 C -32.419 439.228 -28.72 442.16 -24.859 445.379 C -17.248 452.301 -9.944 459.112 -2.246 465.445 C 1.079 468.18 5.218 469.926 9.019 472.466 C 10.872 474.464 12.422 476.776 14.561 477.659 C 23.54 481.364 32.496 485.38 41.834 487.899 C 55.362 491.549 69.185 494.142 82.948 496.857 C 86.041 497.467 89.411 496.828 92.637 496.563 C 95.861 496.298 99.054 495.654 102.278 495.414 C 105.042 495.208 107.925 495.795 110.592 495.244 C 122.045 492.879 133.892 493.256 145.221 490.141 M 309.338 335.416 C 300.57 335.603 291.801 335.789 282.18 336.102 C 272.501 335.305 267.151 342.323 266.597 348.681 C 265.921 356.444 270.721 362.775 279.907 363.495 C 289.588 364.254 299.458 363.904 309.139 362.95 C 317.271 362.148 321.6 356.999 321.899 350.214 C 322.204 343.287 317.85 338.098 309.338 335.416 M -18.185 300.781 C -6.896 308.625 5.549 312.678 19.311 314.043 C 38.89 315.985 57.084 311.958 72.743 300.755 C 99.038 281.941 111.951 256.091 108.999 223.159 C 107.209 203.187 99.147 186.091 85.203 171.935 C 71.668 158.196 55.525 149.759 35.877 147.626 C 16.314 145.502 -1.889 149.004 -17.466 160.452 C -41.414 178.052 -54.557 201.766 -54.06 232.41 C -53.593 261.134 -41.311 283.311 -18.185 300.781 M 363.956 241.737 C 363.978 235.472 364.463 229.167 363.938 222.948 C 361.943 199.281 351.748 179.798 333.188 164.857 C 313.782 149.234 291.666 144.214 267.352 148.64 C 248.448 152.082 233.303 161.93 220.98 176.501 C 208.403 191.372 201.78 208.524 201.065 227.904 C 200.483 243.682 204.316 258.446 212.004 272.251 C 230.602 305.645 263.897 318.593 297.789 313.455 C 316.008 310.693 331.46 302.322 343.582 288.26 C 354.92 275.107 362.111 260.06 363.956 241.737 M 188.356 333.013 C 168.635 348.109 130.664 345.888 114.57 326.124 C 111.381 322.208 107.213 319.655 101.869 321.313 C 96.623 322.94 94.676 327.317 93.587 332.253 C 90.264 347.304 93.682 361.321 100.635 374.558 C 118.286 408.159 159.267 417.273 188.56 398.003 C 205.983 386.542 214.953 369.316 217.024 348.84 C 217.69 342.248 216.894 335.101 214.97 328.754 C 212.281 319.885 204.046 318.515 197.41 324.847 C 194.644 327.487 191.727 329.967 188.356 333.013 M 27.518 363.765 C 29.315 363.495 31.132 363.32 32.905 362.938 C 40.589 361.283 43.953 356.325 43.211 347.855 C 42.674 341.724 36.948 336.304 30.362 336.186 C 20.532 336.01 10.691 335.938 0.866 336.205 C -8.008 336.446 -13.921 345.549 -11.037 353.992 C -8.613 361.088 -1.223 364.524 8.258 363.734 C 14.35 363.226 20.52 363.661 27.518 363.765 Z" transform="matrix(0.9999999999999999, 0, 0, 0.9999999999999999, 0, -1.1368683772161603e-13)"/>
  <path fill="#D70237" opacity="1.000000" stroke="none" d="M 145.569 490.109 C 133.892 493.256 122.045 492.879 110.592 495.244 C 107.925 495.795 105.042 495.208 102.278 495.414 C 99.054 495.654 95.861 496.298 92.637 496.563 C 89.411 496.828 86.041 497.467 82.948 496.857 C 69.185 494.142 55.362 491.549 41.834 487.899 C 32.496 485.38 23.54 481.364 14.561 477.659 C 12.422 476.776 10.872 474.464 9.418 472.438 C 11.811 470.721 15.105 469.718 15.58 467.955 C 16.385 464.971 17.604 461.009 13.375 458.696 C 10.92 457.353 8.599 455.708 6.393 453.976 C 0.02 448.972 -6.027 443.505 -12.714 438.975 C -15.019 437.413 -19.168 437.127 -21.835 438.07 C -23.509 438.662 -23.991 442.625 -25.007 445.075 C -28.72 442.16 -32.419 439.228 -36.147 436.331 C -44.264 430.023 -49.158 421.089 -54.953 412.938 C -61.666 403.493 -68.745 394.147 -74.105 383.938 C -82.063 368.782 -88.963 353.039 -95.694 337.282 C -99.254 328.947 -101.858 320.147 -104.172 311.366 C -105.085 307.901 -104.654 303.725 -103.577 300.264 C -103.134 298.841 -98.748 297.164 -97.268 297.885 C -94.954 299.012 -92.824 301.815 -91.934 304.367 C -82.077 332.635 -67.812 358.345 -49.031 381.709 C -34.219 400.135 -16.895 415.606 2.811 428.466 C 26.571 443.97 52.807 453.202 80.43 459.131 C 103.424 464.067 126.739 464.231 149.842 462.757 C 185.266 460.498 218.914 450.717 249.581 432.286 C 262.89 424.287 276.199 416.147 288.685 406.953 C 304.07 395.624 317.453 382.011 329.589 367.151 C 342.737 351.052 355.392 334.612 364.52 315.878 C 375.867 292.588 385.249 268.575 388.126 242.497 C 389.031 234.3 390.742 226.174 391.309 217.962 C 391.798 210.869 391.607 203.663 390.964 196.576 C 390.055 186.552 388.747 176.542 387.091 166.613 C 382.239 137.508 372.837 110.127 355.818 85.677 C 346.216 71.882 335.975 58.723 322.25 48.68 C 320.989 47.757 320.078 46.356 319.041 44.858 C 325.96 47.194 333.202 49.178 339.653 52.637 C 354.465 60.579 367.717 70.807 379.283 83.038 C 404.884 110.111 421.649 141.804 429.264 178.396 C 435.264 207.226 436.153 236.226 432.911 265.717 C 431.833 265.218 431.124 264.487 430.966 263.653 C 430.077 258.972 429.321 254.266 428.52 249.569 C 426.975 252.508 426.657 255.406 425.991 258.221 C 421.67 276.468 417.308 294.706 412.825 312.914 C 412.525 314.131 411.123 315.075 409.896 316.008 C 402.992 308.362 394.246 308.978 390.144 320.645 C 386.684 330.486 382.68 340.201 378.09 349.566 C 365.723 374.799 349.076 397.095 329.375 417.023 C 321.473 425.017 313.163 432.878 303.968 439.256 C 290.95 448.287 277.318 456.621 263.226 463.845 C 253.741 468.707 243.031 471.2 232.828 474.631 C 225.329 477.153 222.517 484.357 227.24 490.224 C 228.881 492.263 231.675 493.374 233.808 495.243 C 232.69 495.852 231.699 496.386 230.723 496.359 C 226.496 496.239 222.274 495.961 218.05 495.729 C 214.113 495.513 210.104 497.634 206.186 495.088 C 205.249 494.479 203.577 495.069 202.252 494.978 C 197.804 494.672 193.352 494.379 188.917 493.933 C 186.906 493.731 184.3 492.192 183.063 492.982 C 180.05 494.903 177.733 494.614 174.828 493.069 C 173.343 492.279 171.329 492.483 169.554 492.238 C 165.038 489.829 160.523 487.421 155.677 484.836 C 152.799 486.381 149.358 488.229 145.569 490.109 Z" transform="matrix(0.9999999999999999, 0, 0, 0.9999999999999999, 0, -1.1368683772161603e-13)"/>
  <path fill="#FA4761" opacity="1.000000" stroke="none" d="M 410.234 316.146 C 411.123 315.075 412.525 314.131 412.825 312.914 C 417.308 294.706 421.67 276.468 425.991 258.221 C 426.657 255.406 426.975 252.508 428.52 249.569 C 429.321 254.266 430.077 258.972 430.966 263.653 C 431.124 264.487 431.833 265.218 432.686 266.051 C 432.085 285.151 427.708 303.579 423.121 321.997 C 413.768 359.555 398.783 394.544 375.319 425.483 C 351.943 456.307 324.023 481.876 287.806 497.062 C 257.614 509.722 226.568 513.839 194.77 504.048 C 186.157 501.396 178.192 496.635 169.742 492.54 C 171.329 492.483 173.343 492.279 174.828 493.069 C 177.733 494.614 180.05 494.903 183.063 492.982 C 184.3 492.192 186.906 493.731 188.917 493.933 C 193.352 494.379 197.804 494.672 202.252 494.978 C 203.577 495.069 205.249 494.479 206.186 495.088 C 210.104 497.634 214.113 495.513 218.05 495.729 C 222.274 495.961 226.496 496.239 230.723 496.359 C 231.699 496.386 232.69 495.852 234.23 495.255 C 237.902 494.479 241.075 494.261 244.126 493.536 C 276.343 485.88 304.796 470.824 329.423 448.843 C 360.635 420.986 385.378 388.246 401.128 349.266 C 405.407 338.677 411.914 328.467 410.234 316.146 Z" transform="matrix(0.9999999999999999, 0, 0, 0.9999999999999999, 0, -1.1368683772161603e-13)"/>
  <path fill="#158217" opacity="1.000000" stroke="none" d="M 76.058 -52.878 C 75.697 -48.133 76.541 -43.858 79.411 -39.774 C 90.396 -24.143 101.133 -8.338 111.976 7.742 C 111.991 8.083 112.012 8.057 112.012 8.057 C 104.398 4.914 96.079 2.852 89.305 -1.576 C 70.377 -13.95 55.348 -30.222 45.555 -50.852 C 38.415 -65.894 33.08 -81.512 32.405 -98.664 C 34.202 -98.683 35.597 -98.35 37.11 -97.692 C 41.01 -92.835 44.695 -88.218 48.591 -83.787 C 57.693 -73.437 66.896 -63.176 76.058 -52.878 Z" transform="matrix(0.9999999999999999, 0, 0, 0.9999999999999999, 0, -1.1368683772161603e-13)"/>
  <path fill="#9EDB34" opacity="1.000000" stroke="none" d="M 36.992 -98.018 C 35.597 -98.35 34.202 -98.683 32.454 -99.111 C 27.96 -104.343 27.734 -108.224 31.228 -111.507 C 33.947 -114.062 36.891 -113.752 40.024 -112.599 C 56.452 -106.551 70.906 -97.144 84.01 -85.774 C 98.176 -73.481 110.406 -59.535 116.901 -41.29 C 114.836 -41.961 113.053 -42.864 111.473 -44.04 C 106.212 -47.952 101.025 -51.962 95.809 -55.934 C 95.693 -56.163 95.539 -56.364 95.065 -56.967 C 93.85 -57.907 92.917 -58.416 91.983 -58.925 C 91.983 -58.925 91.998 -58.925 92.007 -59.271 C 87.438 -64.097 83.132 -68.903 78.227 -72.99 C 66.698 -82.597 54.992 -92.037 40.942 -97.881 C 39.803 -98.354 38.317 -97.992 36.992 -98.018 Z" transform="matrix(0.9999999999999999, 0, 0, 0.9999999999999999, 0, -1.1368683772161603e-13)"/>
  <path fill="#47A71E" opacity="1.000000" stroke="none" d="M 37.11 -97.692 C 38.317 -97.992 39.803 -98.354 40.942 -97.881 C 54.992 -92.037 66.698 -82.597 78.227 -72.99 C 83.132 -68.903 87.438 -64.097 92.014 -59.268 C 86.019 -59.341 79.993 -59.854 76.202 -53.188 C 66.896 -63.176 57.693 -73.437 48.591 -83.787 C 44.695 -88.218 41.01 -92.835 37.11 -97.692 Z" transform="matrix(0.9999999999999999, 0, 0, 0.9999999999999999, 0, -1.1368683772161603e-13)"/>
  <path fill="#49A01C" opacity="1.000000" stroke="none" d="M 95.818 -55.568 C 101.025 -51.962 106.212 -47.952 111.473 -44.04 C 113.053 -42.864 114.836 -41.961 116.899 -40.903 C 122.086 -32.732 124.803 -23.861 126.964 -14.797 C 126.525 -14.543 126.086 -14.29 125.648 -14.037 C 115.707 -27.758 105.767 -41.48 95.818 -55.568 Z" transform="matrix(0.9999999999999999, 0, 0, 0.9999999999999999, 0, -1.1368683772161603e-13)"/>
  <path fill="#A0BEA5" opacity="1.000000" stroke="none" d="M 167.567 531.86 C 163.736 535.872 158.886 533.839 154.4 533.511 C 151.846 533.324 149.393 531.758 146.868 530.399 C 152.868 525.326 158.815 525.322 164.732 530.224 C 165.478 530.842 166.445 531.191 167.567 531.86 Z" transform="matrix(0.9999999999999999, 0, 0, 0.9999999999999999, 0, -1.1368683772161603e-13)"/>
  <path fill="#49A01C" opacity="1.000000" stroke="none" d="M 92.026 -58.577 C 92.917 -58.416 93.85 -57.907 94.909 -57.076 C 94.046 -57.246 93.057 -57.737 92.026 -58.577 Z" transform="matrix(0.9999999999999999, 0, 0, 0.9999999999999999, 0, -1.1368683772161603e-13)"/>
  <path fill="#158217" opacity="1.000000" stroke="none" d="M 111.978 8.094 C 112.118 8.247 112.27 8.389 112.423 8.531 C 112.317 8.482 112.212 8.434 112.059 8.222 C 112.012 8.057 111.991 8.083 111.978 8.094 Z" transform="matrix(0.9999999999999999, 0, 0, 0.9999999999999999, 0, -1.1368683772161603e-13)"/>
  <path fill="#511D0D" opacity="1.000000" stroke="none" d="M -18.488 300.581 C -41.311 283.311 -53.593 261.134 -54.06 232.41 C -54.557 201.766 -41.414 178.052 -17.466 160.452 C -1.889 149.004 16.314 145.502 35.877 147.626 C 55.525 149.759 71.668 158.196 85.203 171.935 C 99.147 186.091 107.209 203.187 108.999 223.159 C 111.951 256.091 99.038 281.941 72.743 300.755 C 57.084 311.958 38.89 315.985 19.311 314.043 C 5.549 312.678 -6.896 308.625 -18.488 300.581 M -15.414 228.891 C -0.775 247.783 25.711 248.013 39.102 229.365 C 48.132 216.789 48.195 201.572 39.27 188.871 C 31.3 177.527 15.767 172.414 1.9 176.72 C -18.305 182.994 -29.121 207.206 -15.414 228.891 M -15.208 267.589 C -15.172 273.301 -12.669 277.595 -7.396 279.787 C 0.293 282.982 8.848 278.707 11.296 270.733 C 13.513 263.512 7.729 255.199 -0.639 253.577 C -7.151 252.314 -14.189 258.683 -15.208 267.589 M 59.359 216.353 C 66.678 219.255 73.009 216.848 74.12 210.742 C 75.004 205.875 72.423 200.949 68.151 199.349 C 64.124 197.841 59.179 199.453 56.68 203.088 C 53.686 207.442 54.312 211.343 59.359 216.353 Z" transform="matrix(0.9999999999999999, 0, 0, 0.9999999999999999, 0, -1.1368683772161603e-13)"/>
  <path fill="#511D0D" opacity="1.000000" stroke="none" d="M 363.934 242.186 C 362.111 260.06 354.92 275.107 343.582 288.26 C 331.46 302.322 316.008 310.693 297.789 313.455 C 263.897 318.593 230.602 305.645 212.004 272.251 C 204.316 258.446 200.483 243.682 201.065 227.904 C 201.78 208.524 208.403 191.372 220.98 176.501 C 233.303 161.93 248.448 152.082 267.352 148.64 C 291.666 144.214 313.782 149.234 333.188 164.857 C 351.748 179.798 361.943 199.281 363.938 222.948 C 364.463 229.167 363.978 235.472 363.934 242.186 M 243.758 233.819 C 244.524 234.461 245.265 235.135 246.058 235.741 C 259.007 245.644 277.187 245.594 289.005 235.633 C 301.669 224.96 305.586 207.967 298.541 194.269 C 290.711 179.046 274.856 172.009 258.172 176.498 C 234.806 182.785 223.103 212.145 243.758 233.819 M 258.748 254.64 C 258.272 254.496 257.801 254.334 257.319 254.21 C 251.421 252.694 246.036 255.023 242.525 260.601 C 239.802 264.929 240.132 271.747 243.251 275.594 C 247.286 280.57 252.575 282.06 258.371 280.1 C 264.142 278.148 267.04 273.802 267.527 268.183 C 268.054 262.105 264.697 257.813 258.748 254.64 M 310.165 208.515 C 311.468 215.426 315.012 218.478 320.772 217.649 C 325.904 216.911 329.545 212.448 329.022 207.536 C 328.533 202.938 324.316 199.101 319.578 198.941 C 314.109 198.757 311.497 201.199 310.165 208.515 Z" transform="matrix(0.9999999999999999, 0, 0, 0.9999999999999999, 0, -1.1368683772161603e-13)"/>
  <path fill="#511C0D" opacity="1.000000" stroke="none" d="M 188.617 332.767 C 191.727 329.967 194.644 327.487 197.41 324.847 C 204.046 318.515 212.281 319.885 214.97 328.754 C 216.894 335.101 217.69 342.248 217.024 348.84 C 214.953 369.316 205.983 386.542 188.56 398.003 C 159.267 417.273 118.286 408.159 100.635 374.558 C 93.682 361.321 90.264 347.304 93.587 332.253 C 94.676 327.317 96.623 322.94 101.869 321.313 C 107.213 319.655 111.381 322.208 114.57 326.124 C 130.664 345.888 168.635 348.109 188.617 332.767 Z" transform="matrix(0.9999999999999999, 0, 0, 0.9999999999999999, 0, -1.1368683772161603e-13)"/>
  <path fill="#521E0E" opacity="1.000000" stroke="none" d="M 309.945 335.969 C 317.85 338.098 322.204 343.287 321.899 350.214 C 321.6 356.999 317.271 362.148 309.139 362.95 C 299.458 363.904 289.588 364.254 279.907 363.495 C 270.721 362.775 265.921 356.444 266.597 348.681 C 267.151 342.323 272.501 335.305 283.068 336.104 C 292.619 336.061 301.282 336.015 309.945 335.969 Z" transform="matrix(0.9999999999999999, 0, 0, 0.9999999999999999, 0, -1.1368683772161603e-13)"/>
  <path fill="#521D0E" opacity="1.000000" stroke="none" d="M 27.087 363.719 C 20.52 363.661 14.35 363.226 8.258 363.734 C -1.223 364.524 -8.613 361.088 -11.037 353.992 C -13.921 345.549 -8.008 336.446 0.866 336.205 C 10.691 335.938 20.532 336.01 30.362 336.186 C 36.948 336.304 42.674 341.724 43.211 347.855 C 43.953 356.325 40.589 361.283 32.905 362.938 C 31.132 363.32 29.315 363.495 27.087 363.719 Z" transform="matrix(0.9999999999999999, 0, 0, 0.9999999999999999, 0, -1.1368683772161603e-13)"/>
  <path fill="#9C0224" opacity="1.000000" stroke="none" d="M -24.859 445.379 C -23.991 442.625 -23.509 438.662 -21.835 438.07 C -19.168 437.127 -15.019 437.413 -12.714 438.975 C -6.027 443.505 0.02 448.972 6.393 453.976 C 8.599 455.708 10.92 457.353 13.375 458.696 C 17.604 461.009 16.385 464.971 15.58 467.955 C 15.105 469.718 11.811 470.721 9.386 472.094 C 5.218 469.926 1.079 468.18 -2.246 465.445 C -9.944 459.112 -17.248 452.301 -24.859 445.379 Z" transform="matrix(0.9999999999999999, 0, 0, 0.9999999999999999, 0, -1.1368683772161603e-13)"/>
  <path fill="#E86174" opacity="1.000000" stroke="none" d="M 309.642 335.692 C 301.282 336.015 292.619 336.061 283.494 336.042 C 291.801 335.789 300.57 335.603 309.642 335.692 Z" transform="matrix(0.9999999999999999, 0, 0, 0.9999999999999999, 0, -1.1368683772161603e-13)"/>
  <path fill="#9B0123" opacity="1.000000" stroke="none" d="M 409.896 316.008 C 411.914 328.467 405.407 338.677 401.128 349.266 C 385.378 388.246 360.635 420.986 329.423 448.843 C 304.796 470.824 276.343 485.88 244.126 493.536 C 241.075 494.261 237.902 494.479 234.364 494.921 C 231.675 493.374 228.881 492.263 227.24 490.224 C 222.517 484.357 225.329 477.153 232.828 474.631 C 243.031 471.2 253.741 468.707 263.226 463.845 C 277.318 456.621 290.95 448.287 303.968 439.256 C 313.163 432.878 321.473 425.017 329.375 417.023 C 349.076 397.095 365.723 374.799 378.09 349.566 C 382.68 340.201 386.684 330.486 390.144 320.645 C 394.246 308.978 402.992 308.362 409.896 316.008 Z" transform="matrix(0.9999999999999999, 0, 0, 0.9999999999999999, 0, -1.1368683772161603e-13)"/>
  <path fill="#F0DBC4" opacity="1.000000" stroke="none" d="M -15.631 228.594 C -29.121 207.206 -18.305 182.994 1.9 176.72 C 15.767 172.414 31.3 177.527 39.27 188.871 C 48.195 201.572 48.132 216.789 39.102 229.365 C 25.711 248.013 -0.775 247.783 -15.631 228.594 Z" transform="matrix(0.9999999999999999, 0, 0, 0.9999999999999999, 0, -1.1368683772161603e-13)"/>
  <path fill="#EDD7C1" opacity="1.000000" stroke="none" d="M -15.193 267.161 C -14.189 258.683 -7.151 252.314 -0.639 253.577 C 7.729 255.199 13.513 263.512 11.296 270.733 C 8.848 278.707 0.293 282.982 -7.396 279.787 C -12.669 277.595 -15.172 273.301 -15.193 267.161 Z" transform="matrix(0.9999999999999999, 0, 0, 0.9999999999999999, 0, -1.1368683772161603e-13)"/>
  <path fill="#EDD7C1" opacity="1.000000" stroke="none" d="M 59.049 216.131 C 54.312 211.343 53.686 207.442 56.68 203.088 C 59.179 199.453 64.124 197.841 68.151 199.349 C 72.423 200.949 75.004 205.875 74.12 210.742 C 73.009 216.848 66.678 219.255 59.049 216.131 Z" transform="matrix(0.9999999999999999, 0, 0, 0.9999999999999999, 0, -1.1368683772161603e-13)"/>
  <path fill="#EFDAC4" opacity="1.000000" stroke="none" d="M 243.499 233.575 C 223.103 212.145 234.806 182.785 258.172 176.498 C 274.856 172.009 290.711 179.046 298.541 194.269 C 305.586 207.967 301.669 224.96 289.005 235.633 C 277.187 245.594 259.007 245.644 246.058 235.741 C 245.265 235.135 244.524 234.461 243.499 233.575 Z" transform="matrix(0.9999999999999999, 0, 0, 0.9999999999999999, 0, -1.1368683772161603e-13)"/>
  <path fill="#EDD7C1" opacity="1.000000" stroke="none" d="M 259.073 254.829 C 264.697 257.813 268.054 262.105 267.527 268.183 C 267.04 273.802 264.142 278.148 258.371 280.1 C 252.575 282.06 247.286 280.57 243.251 275.594 C 240.132 271.747 239.802 264.929 242.525 260.601 C 246.036 255.023 251.421 252.694 257.319 254.21 C 257.801 254.334 258.272 254.496 259.073 254.829 Z" transform="matrix(0.9999999999999999, 0, 0, 0.9999999999999999, 0, -1.1368683772161603e-13)"/>
  <path fill="#ECD7C1" opacity="1.000000" stroke="none" d="M 310.177 208.117 C 311.497 201.199 314.109 198.757 319.578 198.941 C 324.316 199.101 328.533 202.938 329.022 207.536 C 329.545 212.448 325.904 216.911 320.772 217.649 C 315.012 218.478 311.468 215.426 310.177 208.117 Z" transform="matrix(0.9999999999999999, 0, 0, 0.9999999999999999, 0, -1.1368683772161603e-13)"/>
</svg>